name Run_500 02_newCOP3_v24.mot
datacolumns 19
datarows 20
range 2.70000000 2.71979200
endheader
                time	   R_ground_force_vx	   R_ground_force_vy	   R_ground_force_vz	   R_ground_force_px	   R_ground_force_py	   R_ground_force_pz	   L_ground_force_vx	   L_ground_force_vy	   L_ground_force_vz	   L_ground_force_px	   L_ground_force_py	   L_ground_force_pz	   R_ground_torque_x	   R_ground_torque_y	   R_ground_torque_z	   L_ground_torque_x	   L_ground_torque_y	   L_ground_torque_z	
          2.70000000	         39.38651700	         48.29266000	          6.93191900	          0.37463500	          0.00000000	         -0.23305200	          0.00000000	          0.00000000	          0.00000000	          0.00000000	          0.00000000	          0.00000000	          0.00000000	         -1.65492600	          0.00000000	          0.00000000	          0.00000000	          0.00000000	
          2.70104200	         35.76086800	         43.77948800	          6.66728200	          0.37519400	          0.00000000	         -0.22597400	          0.00000000	          0.00000000	          0.00000000	          0.00000000	          0.00000000	          0.00000000	          0.00000000	         -1.66490800	          0.00000000	          0.00000000	          0.00000000	          0.00000000	
          2.70208300	         32.38691700	         39.65522800	          6.41665400	          0.37635600	          0.00000000	         -0.21802500	          0.00000000	          0.00000000	          0.00000000	          0.00000000	          0.00000000	          0.00000000	          0.00000000	         -1.67483000	          0.00000000	          0.00000000	          0.00000000	          0.00000000	
          2.70312500	         29.25782000	         35.89392500	          6.17930500	          0.37826000	          0.00000000	         -0.20912400	          0.00000000	          0.00000000	          0.00000000	          0.00000000	          0.00000000	          0.00000000	          0.00000000	         -1.68479100	          0.00000000	          0.00000000	          0.00000000	          0.00000000	
          2.70416700	         26.36519800	         32.47024900	          5.95447600	          0.38104900	          0.00000000	         -0.19919200	          0.00000000	          0.00000000	          0.00000000	          0.00000000	          0.00000000	          0.00000000	          0.00000000	         -1.69487800	          0.00000000	          0.00000000	          0.00000000	          0.00000000	
          2.70520800	         23.69949900	         29.35966100	          5.74140800	          0.38486400	          0.00000000	         -0.18815100	          0.00000000	          0.00000000	          0.00000000	          0.00000000	          0.00000000	          0.00000000	          0.00000000	         -1.70516600	          0.00000000	          0.00000000	          0.00000000	          0.00000000	
          2.70625000	         21.25029600	         26.53855900	          5.53936700	          0.38983800	          0.00000000	         -0.17592700	          0.00000000	          0.00000000	          0.00000000	          0.00000000	          0.00000000	          0.00000000	          0.00000000	         -1.71571300	          0.00000000	          0.00000000	          0.00000000	          0.00000000	
          2.70729200	         19.00659600	         23.98442300	          5.34765800	          0.39608300	          0.00000000	         -0.16245100	          0.00000000	          0.00000000	          0.00000000	          0.00000000	          0.00000000	          0.00000000	          0.00000000	         -1.72656500	          0.00000000	          0.00000000	          0.00000000	          0.00000000	
          2.70833300	         16.95710800	         21.67591700	          5.16564400	          0.40367700	          0.00000000	         -0.14766000	          0.00000000	          0.00000000	          0.00000000	          0.00000000	          0.00000000	          0.00000000	          0.00000000	         -1.73775700	          0.00000000	          0.00000000	          0.00000000	          0.00000000	
          2.70937500	         15.09049900	         19.59300600	          4.99274900	          0.41266000	          0.00000000	         -0.13150400	          0.00000000	          0.00000000	          0.00000000	          0.00000000	          0.00000000	          0.00000000	          0.00000000	         -1.74930500	          0.00000000	          0.00000000	          0.00000000	          0.00000000	
          2.71041700	         13.39559600	         17.71703700	          4.82846400	          0.42301500	          0.00000000	         -0.11394700	          0.00000000	          0.00000000	          0.00000000	          0.00000000	          0.00000000	          0.00000000	          0.00000000	         -1.76121600	          0.00000000	          0.00000000	          0.00000000	          0.00000000	
          2.71145800	         11.86156400	         16.03080900	          4.67233800	          0.43467000	          0.00000000	         -0.09497300	          0.00000000	          0.00000000	          0.00000000	          0.00000000	          0.00000000	          0.00000000	          0.00000000	         -1.77348100	          0.00000000	          0.00000000	          0.00000000	          0.00000000	
          2.71250000	         10.47804600	         14.51863100	          4.52398100	          0.44748600	          0.00000000	         -0.07459100	          0.00000000	          0.00000000	          0.00000000	          0.00000000	          0.00000000	          0.00000000	          0.00000000	         -1.78607900	          0.00000000	          0.00000000	          0.00000000	          0.00000000	
          2.71354200	          9.23525100	         13.16632700	          4.38304900	          0.46126500	          0.00000000	         -0.05285400	          0.00000000	          0.00000000	          0.00000000	          0.00000000	          0.00000000	          0.00000000	          0.00000000	         -1.79897700	          0.00000000	          0.00000000	          0.00000000	          0.00000000	
          2.71458300	          8.12400900	         11.96123900	          4.24923300	          0.47574800	          0.00000000	         -0.02986500	          0.00000000	          0.00000000	          0.00000000	          0.00000000	          0.00000000	          0.00000000	          0.00000000	         -1.81212600	          0.00000000	          0.00000000	          0.00000000	          0.00000000	
          2.71562500	          7.13577800	         10.89216100	          4.12225000	          0.49063100	          0.00000000	         -0.00580300	          0.00000000	          0.00000000	          0.00000000	          0.00000000	          0.00000000	          0.00000000	          0.00000000	         -1.82547000	          0.00000000	          0.00000000	          0.00000000	          0.00000000	
          2.71666700	          0.00000000	          0.00000000	          0.00000000	          0.00000000	          0.00000000	          0.00000000	          0.00000000	          0.00000000	          0.00000000	          0.00000000	          0.00000000	          0.00000000	          0.00000000	          0.00000000	          0.00000000	          0.00000000	          0.00000000	          0.00000000	
          2.71770800	          0.00000000	          0.00000000	          0.00000000	          0.00000000	          0.00000000	          0.00000000	          0.00000000	          0.00000000	          0.00000000	          0.00000000	          0.00000000	          0.00000000	          0.00000000	          0.00000000	          0.00000000	          0.00000000	          0.00000000	          0.00000000	
          2.71875000	          0.00000000	          0.00000000	          0.00000000	          0.00000000	          0.00000000	          0.00000000	          0.00000000	          0.00000000	          0.00000000	          0.00000000	          0.00000000	          0.00000000	          0.00000000	          0.00000000	          0.00000000	          0.00000000	          0.00000000	          0.00000000	
          2.71979200	          0.00000000	          0.00000000	          0.00000000	          0.00000000	          0.00000000	          0.00000000	          0.00000000	          0.00000000	          0.00000000	          0.00000000	          0.00000000	          0.00000000	          0.00000000	          0.00000000	          0.00000000	          0.00000000	          0.00000000	          0.00000000	
